<svg width="16" height="16" viewBox="0 0 630 630" fill="currentColor" xmlns="http://www.w3.org/2000/svg">
<path fill-rule="evenodd" clip-rule="evenodd" d="M294.159 413.56C294.655 415.495 295.948 417.132 297.717 418.061C317.2 428.291 336.56 436.431 355.448 442.919C359.058 444.146 362.993 442.286 364.343 438.715C374.917 410.002 383.972 371.961 383.566 329.051C383.434 315.282 381.82 302.061 379.187 289.557C378.824 287.844 377.838 286.324 376.418 285.3C355.623 270.286 332.601 256.05 307.211 243.301C305.319 242.357 303.106 242.31 301.171 243.169C299.241 244.027 297.797 245.707 297.231 247.746C290.936 271.164 285.982 299.513 284.996 331.849C284.194 358.905 287.874 388.684 294.159 413.56Z" fill="currentColor"/>
<path d="M542.355 483.649C542.954 483.663 543.444 484.126 543.496 484.725C543.548 485.324 543.143 485.862 542.553 485.98C385.755 516.816 234.833 469.645 150.328 359.929C97.2682 291.038 81.2346 206.633 77.9316 161.538C77.6768 157.192 80.423 153.238 84.5848 151.964C128.264 139.167 215.048 122.501 298.108 148.359C430.761 189.679 527.916 311.172 552.99 469.31C553.066 469.89 552.702 470.442 552.131 470.598C551.565 470.753 550.966 470.466 550.739 469.923C529.836 424.705 450.182 285.069 282.155 214.461C219.214 187.976 185.656 171.989 116.355 175.5C113.863 175.613 111.891 177.647 111.858 180.143C112.136 225.969 135.776 302.136 175.573 344.282C311.627 488.302 477.196 482.781 542.355 483.649Z" fill="currentColor"/>
</svg>
